<svg width="6" height="9" viewBox="0 0 6 9" fill="none" xmlns="http://www.w3.org/2000/svg">
<path d="M5.79167 0.605046C5.79167 0.544267 5.76752 0.485978 5.72454 0.443C5.68157 0.400023 5.62328 0.375879 5.5625 0.375879H4.41667C3.83968 0.347137 3.27477 0.547933 2.84537 0.934395C2.41597 1.32086 2.15698 1.86156 2.125 2.43838V3.67588H0.979167C0.918388 3.67588 0.860098 3.70002 0.817121 3.743C0.774144 3.78598 0.75 3.84427 0.75 3.90505V5.09671C0.75 5.15749 0.774144 5.21578 0.817121 5.25876C0.860098 5.30174 0.918388 5.32588 0.979167 5.32588H2.125V8.39671C2.125 8.45749 2.14914 8.51578 2.19212 8.55876C2.2351 8.60174 2.29339 8.62588 2.35417 8.62588H3.72917C3.78994 8.62588 3.84823 8.60174 3.89121 8.55876C3.93419 8.51578 3.95833 8.45749 3.95833 8.39671V5.32588H5.15917C5.21013 5.32661 5.25988 5.31033 5.30055 5.27962C5.34123 5.24891 5.3705 5.20551 5.38375 5.1563L5.71375 3.96463C5.72287 3.93077 5.72409 3.89527 5.71733 3.86086C5.71057 3.82645 5.696 3.79405 5.67475 3.76616C5.6535 3.73826 5.62613 3.71562 5.59475 3.69997C5.56337 3.68432 5.52882 3.67608 5.49375 3.67588H3.95833V2.43838C3.96973 2.32493 4.02301 2.21981 4.10776 2.14353C4.19251 2.06726 4.30265 2.02531 4.41667 2.02588H5.5625C5.62328 2.02588 5.68157 2.00173 5.72454 1.95876C5.76752 1.91578 5.79167 1.85749 5.79167 1.79671V0.605046Z" fill="white"/>
</svg>
