<svg width="9" height="9" viewBox="0 0 9 9" fill="none" xmlns="http://www.w3.org/2000/svg">
<path d="M2.70332 8.16662C3.38106 8.18929 4.05646 8.07588 4.68962 7.83309C5.32278 7.59029 5.90084 7.22304 6.38965 6.75303C6.87846 6.28302 7.26809 5.7198 7.53552 5.09665C7.80295 4.47349 7.94275 3.80305 7.94666 3.12495C8.25725 2.7406 8.48787 2.29804 8.62499 1.82328C8.63522 1.78577 8.6344 1.7461 8.62261 1.70905C8.61082 1.672 8.58858 1.63915 8.55855 1.61445C8.52852 1.58975 8.49199 1.57426 8.45337 1.56984C8.41474 1.56542 8.37565 1.57226 8.34082 1.58953C8.17833 1.66775 7.9954 1.69301 7.81779 1.66177C7.64019 1.63052 7.47686 1.54434 7.35082 1.41537C7.18992 1.23917 6.9953 1.09707 6.77848 0.99747C6.56165 0.897873 6.32704 0.84281 6.08855 0.835544C5.85006 0.828278 5.61253 0.868957 5.39005 0.95517C5.16756 1.04138 4.96465 1.17138 4.79332 1.33745C4.55875 1.56463 4.38693 1.84862 4.29457 2.16184C4.20221 2.47506 4.19245 2.80684 4.26624 3.12495C2.73082 3.21662 1.67666 2.48787 0.833322 1.4887C0.807987 1.46001 0.774845 1.43932 0.737944 1.42915C0.701043 1.41898 0.66198 1.41978 0.625525 1.43144C0.58907 1.44311 0.556801 1.46514 0.532658 1.49484C0.508515 1.52454 0.493544 1.56063 0.489572 1.5987C0.328912 2.48989 0.444806 3.40891 0.821688 4.23231C1.19857 5.05572 1.81839 5.74408 2.59791 6.20495C2.07524 6.80437 1.34125 7.17875 0.549155 7.24995C0.506719 7.25699 0.467545 7.27712 0.437116 7.30752C0.406687 7.33792 0.386526 7.37708 0.379454 7.41951C0.372383 7.46194 0.378754 7.50552 0.397678 7.54415C0.416601 7.58278 0.447129 7.61453 0.484988 7.63495C1.1741 7.97933 1.93297 8.1612 2.70332 8.16662Z" fill="#AAAAAA"/>
</svg>
